<svg width="21" height="21" viewBox="0 0 21 21" fill="none" xmlns="http://www.w3.org/2000/svg">
<path d="M13.2729 10.5001L20.6949 3.07806C21.0839 2.68906 21.0839 2.05306 20.6949 1.66406L19.3359 0.305056C18.9469 -0.0839443 18.3109 -0.0839443 17.9219 0.305056L10.4999 7.72706L3.07793 0.305056C2.68893 -0.0839443 2.05293 -0.0839443 1.66393 0.305056L0.304934 1.66406C-0.0840664 2.05306 -0.0840664 2.68906 0.304934 3.07806L7.72693 10.5001L0.305934 17.9221C-0.0830664 18.3111 -0.0830664 18.9471 0.305934 19.3361L1.66493 20.6951C2.05393 21.0841 2.68993 21.0841 3.07893 20.6951L10.5009 13.2731L17.9229 20.6951C18.3119 21.0841 18.9479 21.0841 19.3369 20.6951L20.6959 19.3361C21.0849 18.9471 21.0849 18.3111 20.6959 17.9221L13.2729 10.5001Z" fill="#EE3643"/>
</svg>
